{
  "accessors": [
    {
      "bufferView": 2,
      "componentType": 5126,
      "count": 5880,
      "max": [
        1.5655330419540405,
        2.3275370597839355,
        1.3853590488433838
      ],
      "min": [
        -1.4933569431304932,
        -1.0780500173568726,
        -1.7461040019989014
      ],
      "type": "VEC3"
    },
    {
      "bufferView": 2,
      "byteOffset": 70560,
      "componentType": 5126,
      "count": 5880,
      "max": [
        1.0,
        1.0,
        1.0
      ],
      "min": [
        -1.0,
        -1.0,
        -1.0
      ],
      "type": "VEC3"
    },
    {
      "bufferView": 3,
      "componentType": 5126,
      "count": 5880,
      "max": [
        1.0,
        1.0,
        1.0,
        1.0
      ],
      "min": [
        -1.0,
        -1.0,
        -1.0,
        -1.0
      ],
      "type": "VEC4"
    },
    {
      "bufferView": 1,
      "componentType": 5126,
      "count": 5880,
      "max": [
        0.992268979549408,
        0.9683640003204346
      ],
      "min": [
        0.007660999894142151,
        0.007660000119358301
      ],
      "type": "VEC2"
    },
    {
      "bufferView": 0,
      "componentType": 5125,
      "count": 25596,
      "type": "SCALAR"
    },
    {
      "bufferView": 2,
      "byteOffset": 141120,
      "componentType": 5126,
      "count": 36,
      "max": [
        1.168977975845337,
        -0.8115559816360474,
        1.0396909713745117
      ],
      "min": [
        -1.1689770221710205,
        -1.020300030708313,
        -0.7137770056724548
      ],
      "type": "VEC3"
    },
    {
      "bufferView": 2,
      "byteOffset": 141552,
      "componentType": 5126,
      "count": 36,
      "max": [
        0.2533349096775055,
        -0.9639852643013,
        0.08621546626091003
      ],
      "min": [
        -0.2533349096775055,
        -0.9981180429458618,
        -0.08621546626091003
      ],
      "type": "VEC3"
    },
    {
      "bufferView": 1,
      "byteOffset": 47040,
      "componentType": 5126,
      "count": 36,
      "max": [
        0.9872390031814575,
        0.8636450171470642
      ],
      "min": [
        0.012764000333845615,
        0.14235100150108337
      ],
      "type": "VEC2"
    },
    {
      "bufferView": 0,
      "byteOffset": 102384,
      "componentType": 5125,
      "count": 150,
      "type": "SCALAR"
    }
  ],
  "asset": {
    "extras": {
      "author": "Bexxie (https://sketchfab.com/Bexxie)",
      "license": "CC-BY-4.0 (http://creativecommons.org/licenses/by/4.0/)",
      "source": "https://sketchfab.com/3d-models/sony-trinitron-prl-dce3f599de634388aef1eaf49e3606bf",
      "title": "Sony Trinitron PRL"
    },
    "generator": "Sketchfab-11.12.0",
    "version": "2.0"
  },
  "bufferViews": [
    {
      "buffer": 0,
      "byteLength": 102984,
      "name": "floatBufferViews",
      "target": 34963
    },
    {
      "buffer": 0,
      "byteLength": 47328,
      "byteOffset": 102984,
      "byteStride": 8,
      "name": "floatBufferViews",
      "target": 34962
    },
    {
      "buffer": 0,
      "byteLength": 141984,
      "byteOffset": 150312,
      "byteStride": 12,
      "name": "floatBufferViews",
      "target": 34962
    },
    {
      "buffer": 0,
      "byteLength": 94080,
      "byteOffset": 292296,
      "byteStride": 16,
      "name": "floatBufferViews",
      "target": 34962
    }
  ],
  "buffers": [
    {
      "byteLength": 386376,
      "uri": "scene.bin"
    }
  ],
  "images": [
    {
      "uri": "textures/TV_Body_material_baseColor.png"
    },
    {
      "uri": "textures/TV_Body_material_metallicRoughness.png"
    },
    {
      "uri": "textures/TV_Body_material_normal.png"
    },
    {
      "uri": "textures/TV_Screen_material_baseColor.png"
    },
    {
      "uri": "textures/TV_Screen_material_metallicRoughness.png"
    }
  ],
  "materials": [
    {
      "doubleSided": true,
      "name": "TV_Body_material",
      "normalTexture": {
        "index": 2
      },
      "occlusionTexture": {
        "index": 1,
        "strength": 0.73133082830199
      },
      "pbrMetallicRoughness": {
        "baseColorTexture": {
          "index": 0
        },
        "metallicRoughnessTexture": {
          "index": 1
        }
      }
    },
    {
      "doubleSided": true,
      "name": "TV_Screen_material",
      "occlusionTexture": {
        "index": 4
      },
      "pbrMetallicRoughness": {
        "baseColorTexture": {
          "index": 3
        },
        "metallicRoughnessTexture": {
          "index": 4
        }
      }
    }
  ],
  "meshes": [
    {
      "name": "1",
      "primitives": [
        {
          "attributes": {
            "NORMAL": 1,
            "POSITION": 0,
            "TANGENT": 2,
            "TEXCOORD_0": 3
          },
          "indices": 4,
          "material": 0,
          "mode": 4
        }
      ]
    },
    {
      "name": "0",
      "primitives": [
        {
          "attributes": {
            "NORMAL": 6,
            "POSITION": 5,
            "TEXCOORD_0": 7
          },
          "indices": 8,
          "material": 1,
          "mode": 4
        }
      ]
    }
  ],
  "nodes": [
    {
      "children": [
        1
      ],
      "matrix": [
        -0.9999858140945435,
        -1.5963009257384939e-16,
        -0.005324019119143486,
        0.0,
        0.005324019119143486,
        -6.123547929814119e-17,
        -0.9999858140945435,
        0.0,
        1.5930181726236129e-16,
        -1.0,
        6.208449747886562e-17,
        0.0,
        7.549680709838867,
        36.07363510131836,
        0.020097466185696983,
        1.0
      ],
      "name": "Sketchfab_model"
    },
    {
      "children": [
        2
      ],
      "matrix": [
        1.0,
        0.0,
        0.0,
        0.0,
        0.0,
        -1.0,
        0.0,
        0.0,
        0.0,
        0.0,
        -1.0,
        0.0,
        0.0,
        0.0,
        0.0,
        1.0
      ],
      "name": "eb8b5568a0e9439bb776f9dcf3769961.fbx"
    },
    {
      "children": [
        3
      ],
      "name": "RootNode"
    },
    {
      "children": [
        4,
        5
      ],
      "matrix": [
        100.0,
        0.0,
        0.0,
        0.0,
        0.0,
        100.0,
        0.0,
        0.0,
        0.0,
        0.0,
        100.0,
        0.0,
        0.0,
        0.0,
        0.0,
        1.0
      ],
      "name": "TV_body_low"
    },
    {
      "mesh": 0,
      "name": "1"
    },
    {
      "children": [
        6
      ],
      "name": "TV_screen_low"
    },
    {
      "mesh": 1,
      "name": "0"
    }
  ],
  "samplers": [
    {
      "magFilter": 9729,
      "minFilter": 9987,
      "wrapS": 10497,
      "wrapT": 10497
    }
  ],
  "scene": 0,
  "scenes": [
    {
      "name": "Sketchfab_Scene",
      "nodes": [
        0
      ]
    }
  ],
  "textures": [
    {
      "sampler": 0,
      "source": 0
    },
    {
      "sampler": 0,
      "source": 1
    },
    {
      "sampler": 0,
      "source": 2
    },
    {
      "sampler": 0,
      "source": 3
    },
    {
      "sampler": 0,
      "source": 4
    }
  ]
}
